# xmcd
#
# Track frame offsets: 
#        150
#        18092
#        35385
#        50230
#        75731
#        95485
#        113354
#        136017
#        152099
#        172731
#        191368
#        217849
#        233301
#        252697
#
# Disc length: 3639 seconds
#
# Revision: 0
# Processed by: cddbd v1.5.2PL0 Copyright (c) Steve Scherf et al.
# Submitted via: ExactAudioCopy v1.1
#
DISCID=9f0e350e
DTITLE=Omar Coleman - Born and Raised
DYEAR=2015
DGENRE=Blues
TTITLE0=Tryin' To Do Right
TTITLE1=Man Like Me
TTITLE2=Sit Down Baby
TTITLE3=I Was A Fool
TTITLE4=Wishing Well
TTITLE5=Slow Down Baby
TTITLE6=Lucky Man
TTITLE7=I Don't Want No Trouble
TTITLE8=You Got A Hold On Me
TTITLE9=Born and Raised
TTITLE10=One Request
TTITLE11=Tell Me What You Want
TTITLE12=I Know You Been Cheating
TTITLE13=Raspberry Wine
EXTD=
EXTT0=
EXTT1=
EXTT2=
EXTT3=
EXTT4=
EXTT5=
EXTT6=
EXTT7=
EXTT8=
EXTT9=
EXTT10=
EXTT11=
EXTT12=
EXTT13=
PLAYORDER=
